<?xml version="1.0" standalone="no"?>
<!DOCTYPE svg PUBLIC "-//W3C//DTD SVG 20010904//EN"
 "http://www.w3.org/TR/2001/REC-SVG-20010904/DTD/svg10.dtd">
<svg version="1.0" xmlns="http://www.w3.org/2000/svg"
 width="2363.000000pt" height="2363.000000pt" viewBox="0 0 2363.000000 2363.000000"
 preserveAspectRatio="xMidYMid meet">

<g transform="translate(0.000000,2363.000000) scale(0.100000,-0.100000)"
fill="#000000" stroke="none">
<path d="M12260 19884 c-107 -115 -98 -112 -300 -118 -96 -4 -236 -8 -310 -11
-74 -3 -205 -7 -290 -10 -85 -3 -216 -8 -290 -11 -74 -3 -239 -9 -367 -14
-134 -5 -240 -13 -252 -19 -12 -7 -21 -22 -21 -35 0 -25 -12 -32 -100 -58
l-45 -13 -3 -79 -3 -79 183 6 c101 4 272 10 381 13 l197 7 0 -49 c0 -56 9 -94
21 -94 4 0 27 13 51 29 32 22 46 26 58 18 9 -5 17 -15 18 -21 0 -6 3 -22 6
-36 10 -41 15 -116 21 -300 3 -96 9 -296 14 -445 5 -148 9 -277 9 -285 -1 -27
12 -353 18 -446 l5 -91 -28 -11 c-15 -6 -39 -14 -53 -17 -75 -20 -76 -22 -72
-99 3 -39 6 -73 7 -74 2 -2 124 -1 270 3 l267 8 -7 191 c-28 752 -61 1732 -58
1735 2 3 604 29 721 31 l32 0 -1 108 c-1 59 -4 158 -8 221 l-6 115 -65 -70z"/>
<path d="M9262 19604 c-33 -72 -78 -125 -127 -149 -40 -20 -447 -179 -770
-300 -33 -13 -89 -34 -125 -48 -36 -14 -143 -55 -239 -91 -96 -36 -181 -72
-189 -79 -9 -7 -46 -12 -94 -12 -43 0 -78 -1 -78 -2 0 -2 170 -447 379 -990
208 -544 386 -1010 396 -1038 10 -27 21 -53 25 -57 5 -7 1696 635 1709 648 4
4 -129 354 -135 354 -2 0 -15 -22 -28 -49 -56 -109 -64 -114 -375 -233 -102
-39 -220 -84 -261 -100 -470 -182 -528 -195 -601 -134 -17 14 -27 26 -24 26 4
0 2 6 -4 13 -14 17 1 72 27 101 19 21 18 24 -68 251 l-88 230 27 12 c14 7 244
96 510 198 267 102 486 187 488 189 2 2 -27 80 -63 175 l-67 172 -29 -52 c-45
-83 -72 -113 -124 -137 -71 -31 -648 -251 -719 -273 -67 -21 -162 -25 -198 -8
-48 22 -62 97 -27 142 11 14 20 31 20 38 0 7 -34 104 -76 216 -45 119 -73 208
-68 213 5 4 263 106 574 225 311 119 568 220 571 223 7 7 -116 330 -130 345
-4 4 -13 -4 -19 -19z"/>
<path d="M13949 19409 c-164 -13 -340 -73 -476 -162 -248 -164 -406 -414 -468
-743 -3 -16 -10 -81 -15 -145 -17 -188 -24 -224 -41 -214 -5 4 -9 1 -9 -5 0
-7 -6 -8 -19 -1 -10 6 -22 7 -26 3 -5 -4 -5 -2 -2 4 8 15 -15 25 -32 14 -21
-12 32 -189 93 -315 169 -349 489 -590 916 -692 81 -19 142 -26 270 -30 213
-7 333 13 501 83 74 30 179 92 179 105 0 5 -44 81 -97 169 l-98 159 -30 -62
c-35 -73 -69 -98 -168 -128 -106 -31 -161 -38 -292 -35 -168 4 -311 47 -442
133 -39 26 -124 114 -118 123 3 5 1 11 -5 15 -14 9 -13 18 6 41 8 10 12 12 8
4 -4 -8 4 -4 18 10 l26 24 -56 62 c-216 236 -252 577 -95 889 87 172 221 293
394 356 197 72 415 55 629 -48 82 -40 107 -58 190 -142 66 -66 106 -117 130
-163 19 -37 38 -68 41 -68 20 0 419 203 419 213 0 18 -73 141 -131 218 -27 37
-80 95 -116 130 l-67 62 -9 -29 c-6 -16 -13 -31 -16 -34 -3 -3 -6 -11 -6 -19
0 -8 -6 -16 -14 -19 -8 -3 -11 0 -8 5 3 5 -2 9 -11 10 -32 3 -52 9 -64 21 -7
7 -16 12 -21 12 -4 0 -47 18 -95 41 -164 77 -372 135 -521 145 -143 9 -163 9
-252 3z"/>
<path d="M6193 17752 c-26 -55 -39 -72 -75 -91 -107 -60 -277 -207 -381 -331
-183 -218 -283 -418 -312 -626 -4 -32 -11 -71 -19 -114 -1 -3 -10 -19 -20 -37
-18 -30 -29 -33 -66 -19 -8 3 -21 2 -29 -3 -38 -24 53 -223 149 -325 124 -132
264 -203 420 -213 112 -7 197 13 325 77 123 61 229 137 421 300 297 252 403
310 514 280 55 -15 126 -85 136 -134 8 -45 12 -48 58 -35 52 14 72 5 84 -41
44 -176 -135 -497 -403 -719 -101 -83 -182 -139 -265 -182 -58 -30 -73 -33
-143 -32 l-78 1 24 -42 c13 -22 41 -72 62 -111 21 -38 47 -84 57 -102 l19 -32
52 18 c174 60 386 210 572 402 414 430 550 926 344 1252 -40 62 -127 157 -144
157 -7 0 -20 -21 -30 -46 -17 -45 -18 -46 -54 -41 -44 6 -78 14 -91 22 -32 20
-183 34 -254 24 -157 -22 -260 -83 -546 -324 -192 -162 -260 -214 -330 -253
-148 -81 -301 -91 -388 -25 -59 44 -64 91 -15 140 21 21 24 29 15 42 -58 81
-72 156 -48 249 57 222 287 474 576 629 47 26 87 48 89 49 4 4 -182 304 -189
304 -3 0 -19 -30 -37 -68z"/>
<path d="M16542 17682 c-135 -22 -241 -63 -372 -141 -99 -60 -99 -60 -215
-176 -150 -149 -243 -314 -279 -500 -18 -91 -25 -136 -32 -226 -5 -67 -8 -99
-18 -168 -4 -28 -26 -44 -42 -31 -6 6 -15 6 -19 2 -5 -4 -5 -2 -2 5 8 14 -11
22 -36 15 -24 -6 -17 -49 29 -191 70 -213 191 -407 364 -581 197 -199 432
-325 690 -371 96 -17 294 -17 390 0 407 72 774 363 930 738 129 310 117 674
-34 998 -92 196 -290 451 -402 518 -6 3 -11 -10 -13 -35 -1 -23 -4 -45 -7 -50
-7 -10 -44 -11 -44 0 0 4 -10 8 -22 9 -11 1 -24 6 -27 11 -6 9 -29 19 -45 20
-5 0 -12 4 -15 9 -3 5 -49 27 -101 50 -232 101 -457 132 -678 95z m412 -352
c204 -52 391 -210 492 -415 24 -49 49 -116 56 -147 9 -45 16 -56 30 -55 10 1
18 5 18 10 0 4 4 6 9 2 5 -3 12 -1 15 3 3 5 15 8 28 7 24 -2 54 -43 66 -92 10
-44 8 -182 -5 -248 -12 -67 -78 -239 -99 -260 -8 -7 -14 -16 -14 -20 0 -3 -24
-38 -54 -78 -182 -244 -487 -393 -786 -382 -204 8 -372 86 -487 228 -24 28
-31 66 -13 68 6 1 14 2 18 3 5 0 16 9 26 18 16 16 14 21 -39 77 -109 114 -172
226 -207 363 -29 116 -23 291 14 396 87 245 316 453 577 523 93 25 255 25 355
-1z"/>
<path d="M9610 15743 c-138 -8 -297 -66 -413 -152 -56 -41 -187 -175 -187
-191 0 -6 -6 -10 -14 -10 -16 0 -28 34 -34 103 -2 14 -6 16 -22 7 -27 -14 -63
-80 -97 -175 -25 -72 -28 -93 -28 -205 0 -102 5 -138 23 -195 87 -273 314
-469 625 -540 90 -20 304 -20 391 0 37 9 99 28 139 42 360 134 577 490 501
825 -20 89 -62 189 -94 225 -14 16 -24 31 -22 36 1 4 -2 7 -7 7 -10 0 -36
-106 -32 -129 3 -17 -19 -4 -37 21 -33 46 -121 134 -176 176 -139 105 -336
164 -516 155z"/>
<path d="M13630 15733 c-130 -13 -280 -67 -389 -141 -31 -21 -64 -41 -73 -45
-10 -3 -18 -11 -18 -17 0 -6 -5 -8 -10 -5 -6 4 -8 10 -5 15 3 5 0 12 -6 16 -8
4 -9 3 -5 -4 4 -7 1 -12 -6 -12 -9 0 -9 -3 2 -10 12 -8 13 -11 2 -22 -8 -7
-13 -8 -12 -3 2 6 1 12 0 15 -1 3 -2 19 -3 37 -2 25 1 29 11 20 11 -8 11 -6 1
15 l-11 26 -30 -26 c-123 -109 -208 -310 -208 -492 0 -479 487 -828 1025 -735
262 46 495 216 609 444 81 162 81 421 -2 586 -41 83 -147 219 -162 210 -5 -3
-11 1 -13 7 -4 10 -6 10 -6 0 -1 -7 -6 -10 -13 -6 -7 5 -8 3 -2 -7 9 -14 10
-19 13 -40 0 -5 7 -7 14 -3 10 6 10 4 0 -7 -7 -7 -13 -22 -14 -33 0 -20 -1
-20 -9 2 -5 12 -12 22 -15 22 -4 0 -3 -5 0 -10 4 -6 -22 10 -57 34 -170 118
-306 165 -493 170 -44 2 -96 1 -115 -1z m705 -142 c3 -5 2 -12 -3 -15 -5 -3
-9 1 -9 9 0 17 3 19 12 6z"/>
<path d="M10854 15070 c4 -80 56 -202 122 -290 93 -123 210 -214 354 -273 133
-54 173 -61 355 -61 157 0 177 2 258 27 48 15 127 48 176 73 206 105 376 328
397 520 6 54 5 57 -9 39 -8 -11 -13 -23 -10 -28 2 -4 -1 -6 -8 -5 -7 2 -18 -7
-24 -19 -7 -13 -15 -20 -20 -15 -5 4 -5 2 -2 -4 3 -6 -3 -20 -13 -32 -11 -12
-20 -24 -20 -28 0 -7 -76 -121 -94 -141 -148 -161 -292 -242 -489 -273 -104
-17 -290 -8 -385 20 -181 51 -330 161 -437 321 -27 41 -53 76 -57 77 -5 2 -6
7 -3 12 2 4 -4 15 -15 25 -11 10 -20 24 -20 32 0 7 -5 13 -11 13 -5 0 -7 5 -4
10 4 6 1 9 -7 8 -7 -2 -12 3 -10 10 1 8 -2 11 -7 8 -5 -4 -12 2 -15 11 -3 10
-4 -7 -2 -37z"/>
<path d="M7065 15075 c-75 -21 -132 -54 -202 -117 -35 -32 -67 -58 -71 -58
-11 0 -43 60 -37 70 8 13 -26 21 -40 10 -26 -21 -68 -134 -73 -196 -11 -143 4
-169 231 -409 183 -192 323 -326 467 -446 63 -53 198 -170 300 -260 245 -217
294 -258 414 -339 190 -127 390 -223 577 -277 86 -24 114 -27 329 -32 l235 -6
-1 -1950 c-1 -1072 -5 -1990 -9 -2038 -7 -86 -6 -90 24 -152 51 -104 159 -182
303 -221 72 -19 277 -18 351 1 136 35 255 123 304 223 30 62 35 126 17 257 -5
40 -6 201 -2 375 3 168 11 553 18 855 6 303 15 744 20 980 6 237 14 633 20
880 5 248 12 527 16 621 l6 171 382 7 c209 3 402 9 428 12 30 4 59 1 78 -7 27
-13 30 -18 30 -61 0 -27 5 -50 13 -54 6 -4 9 -4 5 1 -4 4 2 15 13 24 23 19 38
67 30 99 -10 36 -59 81 -104 93 -29 8 -121 9 -307 4 -146 -4 -323 -8 -395 -10
-71 -1 -137 -6 -146 -9 -27 -11 -42 19 -35 71 6 49 10 583 4 588 -2 1 -120 6
-263 9 -143 4 -402 11 -575 16 -326 9 -375 15 -525 65 -73 25 -238 107 -326
162 -41 26 -97 62 -124 78 -44 27 -179 137 -215 175 -8 9 -53 49 -100 90 -47
41 -92 81 -100 90 -14 16 -133 121 -194 171 -16 13 -39 33 -51 44 -77 68 -366
297 -434 343 -106 73 -176 87 -286 57z"/>
<path d="M16112 15010 c-86 -28 -184 -87 -288 -173 -10 -9 -59 -49 -109 -88
-49 -40 -138 -111 -196 -158 -58 -47 -123 -100 -145 -118 -123 -98 -443 -359
-468 -380 -84 -74 -294 -185 -453 -239 -210 -72 -132 -67 -1235 -71 l-998 -4
0 -346 0 -345 -30 -35 c-32 -36 -36 -56 -20 -98 10 -26 33 -55 44 -55 3 0 6
20 6 44 0 31 5 46 16 50 9 3 102 6 207 6 106 0 302 5 437 10 155 6 248 6 254
0 6 -6 21 -10 33 -10 l24 0 -1 -2045 -2 -2044 28 -52 c51 -92 162 -169 296
-205 72 -19 287 -18 361 1 135 35 249 119 296 218 37 80 44 124 30 184 -13 52
-20 188 -21 408 -1 206 11 1612 17 1885 3 129 8 541 11 915 3 374 7 681 9 683
1 1 89 6 196 12 277 13 411 47 655 164 265 128 455 271 800 603 30 28 85 78
122 110 37 32 121 107 187 168 160 148 387 349 457 405 30 25 68 65 84 90 27
41 29 52 29 140 0 91 -2 98 -42 180 -24 50 -63 108 -93 140 -28 30 -48 48 -45
40 4 -8 -1 -6 -9 4 -9 11 -16 15 -17 8 -2 -19 -1 -52 1 -54 1 -2 3 -13 4 -25
2 -16 -1 -20 -9 -13 -7 5 -15 8 -18 5 -4 -3 -5 -2 -2 1 4 7 -18 21 -110 71
-69 37 -200 43 -293 13z"/>
<path d="M11177 8948 c18 -118 157 -243 318 -289 79 -22 345 -19 415 5 165 56
279 163 305 283 6 29 4 32 -16 28 -12 -3 -26 -10 -31 -17 -4 -7 -8 -9 -8 -4 0
5 -30 -20 -67 -55 -38 -36 -84 -75 -105 -87 -123 -75 -419 -81 -563 -12 -47
23 -62 35 -147 117 -32 30 -58 51 -58 47 0 -4 -5 -3 -12 4 -23 23 -37 14 -31
-20z"/>
<path d="M3495 8190 c-162 -18 -211 -26 -390 -61 -140 -27 -463 -119 -490
-139 -5 -4 -38 -17 -71 -28 -97 -33 -307 -133 -393 -186 -20 -12 -43 -26 -51
-29 -45 -21 -235 -154 -350 -245 -132 -105 -306 -281 -427 -432 -15 -19 -34
-41 -40 -48 -7 -7 -13 -17 -13 -22 0 -4 -16 -25 -35 -46 -19 -22 -38 -49 -41
-61 -3 -13 -10 -23 -15 -23 -5 0 -9 -7 -9 -15 0 -8 -4 -15 -9 -15 -10 0 -54
-69 -55 -85 -1 -5 -10 -11 -21 -13 -11 -2 -16 0 -10 5 6 4 11 20 12 35 1 15
12 58 23 95 25 79 30 98 37 135 3 15 9 26 13 23 4 -2 5 7 2 20 -4 23 -6 22
-35 -23 -17 -26 -34 -49 -37 -52 -21 -20 -146 -251 -184 -340 -10 -25 -27 -63
-36 -85 -47 -107 -123 -363 -145 -490 -4 -22 -9 -49 -11 -60 -19 -106 -26
-194 -31 -396 -7 -314 13 -513 78 -767 121 -471 341 -862 674 -1197 144 -146
166 -166 287 -258 582 -448 1342 -687 2183 -687 417 0 805 58 1155 171 413
134 747 331 1034 608 101 98 266 295 266 318 0 25 -51 26 -121 3 -93 -30 -128
-28 -196 11 -32 18 -67 37 -78 43 -11 7 -38 23 -60 37 -22 14 -59 36 -83 48
-54 27 -53 28 -180 -97 -152 -149 -302 -255 -507 -359 -518 -261 -1176 -337
-1850 -212 -60 11 -130 26 -155 33 -25 8 -65 19 -90 26 -72 21 -242 79 -277
95 -17 8 -34 15 -37 15 -9 0 -152 71 -211 105 -84 47 -230 140 -245 155 -3 3
-39 32 -80 65 -161 129 -334 322 -437 490 -7 11 -17 32 -24 48 -6 15 -15 27
-20 27 -5 0 -9 11 -9 24 0 13 -6 29 -14 35 -15 13 -27 69 -16 76 4 2 39 -27
78 -65 39 -39 76 -70 81 -70 6 0 11 -4 11 -8 0 -4 9 -8 19 -9 16 -1 13 8 -21
63 -49 82 -142 270 -158 321 -6 21 -18 52 -26 70 -8 17 -14 35 -14 41 0 5 -9
38 -21 73 -34 106 -56 220 -74 384 -26 230 -12 562 30 728 8 32 15 67 15 77 0
28 84 276 125 370 53 121 173 320 258 425 294 368 691 617 1197 754 426 115
965 121 1390 14 458 -114 853 -353 1116 -675 36 -43 62 -67 71 -64 17 7 284
166 438 261 61 38 120 73 132 79 35 17 36 37 6 80 -40 56 -54 63 -94 44 -34
-16 -59 -21 -91 -19 -9 0 -54 38 -100 84 -110 110 -331 297 -351 297 -2 0 -38
22 -80 50 -244 161 -624 307 -957 370 -63 11 -124 23 -135 26 -11 2 -105 13
-210 24 -240 25 -578 25 -810 0z m-1830 -3699 c3 -5 2 -12 -3 -15 -5 -3 -9 1
-9 9 0 17 3 19 12 6z"/>
<path d="M8789 8206 c-2 -2 -60 -9 -129 -16 -192 -18 -354 -48 -615 -114 -88
-22 -246 -77 -360 -125 -109 -47 -327 -152 -335 -162 -3 -3 -23 -16 -45 -28
-142 -76 -392 -262 -535 -399 -36 -34 -68 -62 -72 -62 -5 0 -8 -5 -8 -10 0 -6
-21 -33 -47 -60 -27 -27 -58 -62 -70 -77 -12 -15 -31 -39 -43 -53 -30 -35 -52
-64 -109 -145 -27 -38 -59 -80 -70 -93 -12 -12 -21 -25 -21 -27 0 -3 -10 -21
-22 -40 -28 -42 -52 -55 -43 -22 14 51 67 224 75 244 9 23 -2 39 -19 29 -11
-7 -91 -123 -91 -132 0 -3 -9 -18 -20 -34 -49 -68 -185 -374 -217 -485 -8 -27
-18 -59 -22 -70 -17 -38 -52 -191 -77 -335 -31 -176 -43 -512 -25 -710 45
-513 226 -989 532 -1392 194 -256 521 -547 789 -702 302 -175 580 -289 907
-371 694 -174 1485 -149 2148 70 161 53 209 72 430 175 76 36 249 136 350 203
273 183 557 460 736 722 88 128 206 341 253 455 10 25 24 59 31 75 53 124 120
375 156 590 20 115 23 166 23 435 0 168 -3 317 -7 333 -4 15 -4 27 0 27 5 -1
33 -24 63 -51 181 -167 464 -316 787 -414 307 -94 568 -147 1333 -270 395 -63
556 -95 775 -154 397 -107 650 -271 742 -481 39 -87 42 -100 50 -177 9 -95 9
-79 0 -190 -9 -111 -15 -130 -72 -257 -21 -45 -24 -61 -15 -70 9 -8 14 -8 17
2 3 6 9 12 14 12 5 0 26 7 47 16 20 10 43 18 50 20 14 3 16 -12 3 -20 -5 -4
-12 -24 -16 -45 -4 -22 -13 -45 -21 -52 -8 -6 -14 -16 -14 -22 0 -5 -17 -31
-37 -56 -208 -262 -597 -416 -1188 -472 -193 -19 -725 -16 -910 4 -82 10 -159
19 -170 21 -11 2 -69 11 -130 21 -451 69 -932 225 -1291 418 -58 31 -111 53
-125 52 -13 -1 -29 -3 -35 -4 -6 0 -21 -20 -34 -44 -13 -23 -39 -63 -57 -89
-18 -26 -33 -51 -33 -55 0 -14 -61 -73 -75 -73 -18 0 -45 27 -45 45 0 14 33
79 52 102 5 7 7 17 3 22 -3 6 0 8 8 5 10 -4 19 5 26 29 7 19 21 43 31 52 11
10 20 22 20 27 0 5 7 16 15 24 12 12 12 18 2 28 -15 17 -39 -6 -80 -74 -45
-74 -51 -84 -74 -113 -13 -16 -23 -34 -23 -41 0 -7 -14 -28 -30 -46 -48 -54
-103 -138 -96 -148 17 -28 244 -165 387 -234 828 -399 2012 -546 3033 -378
769 126 1340 464 1576 930 38 75 100 243 100 271 0 33 17 21 64 -45 218 -305
561 -602 922 -799 114 -62 153 -81 279 -137 765 -336 1794 -383 2626 -119 162
51 309 109 449 177 198 96 444 252 595 377 189 157 432 420 511 554 10 17 22
31 26 31 4 0 8 5 8 11 0 6 13 29 29 52 161 235 315 634 372 967 61 349 47 838
-31 1130 -60 225 -96 335 -145 445 -13 28 -33 73 -45 100 -12 28 -47 93 -78
145 -104 179 -144 232 -157 210 -5 -9 -4 -11 3 -6 12 7 15 -1 32 -99 6 -33 15
-61 20 -63 6 -2 10 -14 10 -27 0 -12 6 -35 14 -50 14 -27 12 -55 -4 -55 -13 0
-50 56 -43 64 3 3 0 6 -8 6 -8 0 -27 24 -43 53 -16 28 -32 54 -36 57 -3 3 -17
21 -30 40 -12 19 -28 40 -34 45 -6 6 -22 24 -34 40 -106 140 -249 287 -422
432 -72 60 -169 129 -280 200 -63 40 -120 77 -127 83 -7 5 -16 10 -20 10 -4 0
-44 19 -88 42 -79 42 -109 56 -255 118 -116 49 -288 105 -460 149 -95 24 -301
61 -440 78 -263 32 -829 21 -1025 -20 -11 -3 -40 -8 -65 -11 -117 -18 -340
-74 -500 -126 -252 -81 -523 -213 -737 -357 -47 -32 -96 -65 -110 -74 -34 -23
-85 -64 -168 -134 -110 -93 -345 -335 -345 -354 0 -5 -3 -11 -7 -13 -5 -1 -21
-21 -38 -43 -40 -54 -47 -63 -67 -86 -10 -10 -18 -21 -18 -24 0 -10 -73 -110
-87 -118 -7 -4 -13 -13 -13 -18 0 -6 -7 -17 -15 -25 -8 -9 -15 -24 -15 -35 0
-11 -4 -17 -10 -14 -17 10 -11 53 14 118 23 59 42 127 52 192 4 23 3 26 -5 15
-6 -8 -11 -24 -11 -35 0 -16 -2 -17 -9 -6 -8 12 -12 9 -23 -15 -7 -16 -18 -33
-24 -39 -37 -32 -194 -348 -246 -495 -60 -169 -88 -277 -124 -485 -26 -152
-43 -473 -30 -578 7 -50 11 -59 36 -72 63 -33 85 -79 59 -127 -15 -27 -69 -48
-126 -48 -50 0 -144 29 -172 53 -14 12 -178 96 -267 135 -96 44 -336 118 -519
162 -241 58 -396 86 -1060 196 -271 44 -569 104 -718 144 -332 90 -578 208
-721 347 -104 101 -181 263 -125 263 10 0 19 -4 19 -9 0 -10 27 -21 44 -20 5
0 13 -5 17 -13 7 -10 9 -8 9 7 1 18 1 19 11 3 5 -10 15 -18 22 -18 8 0 8 3 2
8 -23 16 -76 158 -91 245 -64 368 125 685 519 867 267 123 651 189 1102 190
659 0 1260 -141 1747 -410 61 -34 114 -57 119 -53 4 4 50 78 102 163 52 85
129 212 172 282 47 77 75 133 72 143 -9 23 -47 18 -133 -16 l-77 -31 -51 20
c-28 11 -96 39 -151 62 -177 74 -430 155 -595 190 -30 6 -95 20 -145 31 -314
68 -701 109 -1045 109 -635 0 -1126 -99 -1560 -313 -47 -23 -89 -46 -95 -50
-5 -4 -59 -40 -120 -80 -73 -48 -148 -109 -222 -182 -62 -61 -113 -114 -113
-118 0 -7 -25 -38 -73 -91 -15 -17 -34 -40 -42 -51 -14 -18 -15 -14 -14 56 1
42 -2 82 -6 89 -4 7 -2 16 6 21 8 5 10 9 4 9 -12 0 -43 -20 -31 -20 4 0 -1 -8
-13 -17 -46 -39 -157 -295 -176 -406 -6 -35 -2 -42 41 -90 43 -48 46 -54 41
-95 -15 -134 -219 -134 -293 1 -15 28 -43 72 -62 97 -18 25 -43 58 -55 74
-127 172 -318 362 -521 520 -301 233 -676 415 -1081 524 -100 26 -152 38 -325
72 -152 29 -420 50 -650 50 -130 0 -239 -2 -241 -4z m651 -514 c25 -6 96 -19
159 -30 307 -56 646 -196 896 -370 150 -104 302 -245 419 -387 81 -98 83 -101
97 -127 6 -13 15 -25 19 -28 10 -7 134 -228 157 -280 11 -25 30 -72 43 -105
12 -33 27 -69 31 -80 19 -43 74 -265 88 -355 32 -194 42 -539 20 -665 -5 -27
-15 -90 -23 -140 -17 -108 -35 -195 -43 -215 -8 -19 -7 -16 -22 -70 -6 -25
-16 -54 -21 -65 -5 -11 -15 -38 -22 -60 -7 -22 -15 -42 -18 -45 -3 -3 -12 -24
-20 -47 -7 -24 -17 -43 -22 -43 -4 0 -8 -4 -8 -10 0 -17 -108 -229 -122 -240
-4 -3 -3 -12 1 -19 7 -11 11 -10 20 5 6 11 11 14 11 7 0 -9 76 65 147 145 22
24 33 20 28 -10 -3 -16 -57 -128 -89 -183 -34 -60 -120 -185 -128 -185 -4 0
-8 -4 -8 -9 0 -30 -259 -288 -380 -377 -233 -174 -482 -296 -772 -379 -400
-115 -888 -143 -1308 -75 -509 83 -885 249 -1244 550 -56 46 -201 197 -241
250 -22 29 -46 58 -52 65 -7 8 -13 18 -13 24 0 6 -4 11 -9 11 -9 0 -40 49
-103 161 -15 27 -25 49 -21 49 3 0 -2 8 -11 19 -9 10 -18 28 -19 40 -1 11 -5
21 -10 21 -4 0 -6 4 -3 9 3 5 -1 11 -9 15 -14 5 -22 36 -10 36 3 0 47 -41 97
-91 74 -74 92 -89 100 -76 6 11 -2 35 -24 79 -18 35 -35 65 -38 68 -3 3 -27
52 -54 109 -132 288 -196 594 -195 941 0 220 33 476 78 623 130 418 307 702
611 981 264 241 687 447 1070 520 47 9 110 21 140 27 30 6 89 14 130 19 95 11
640 4 700 -8z m10341 8 c1070 -104 1833 -747 2024 -1705 32 -162 39 -256 38
-475 -1 -306 -24 -451 -116 -740 -30 -96 -142 -340 -179 -392 -10 -15 -17 -32
-14 -36 3 -5 -4 -16 -15 -25 -11 -10 -17 -22 -13 -28 4 -6 10 -5 17 4 7 8 20
19 29 24 22 11 150 133 140 133 -12 0 22 20 36 20 6 0 12 -4 12 -10 0 -5 -7
-10 -15 -10 -8 0 -15 -8 -15 -17 0 -10 -7 -31 -15 -47 -8 -15 -15 -37 -15 -47
0 -11 -4 -19 -10 -19 -5 0 -16 -16 -24 -34 -30 -71 -170 -260 -275 -371 -48
-52 -128 -123 -241 -217 -30 -25 -180 -124 -230 -151 -212 -117 -392 -190
-605 -247 -352 -94 -783 -122 -1155 -74 -278 35 -549 106 -740 191 -153 69
-270 130 -327 171 -17 12 -34 22 -38 22 -4 0 -24 13 -45 30 -21 16 -42 30 -48
30 -6 0 -12 3 -14 8 -1 4 -16 18 -33 30 -79 61 -105 84 -194 172 -128 125
-259 294 -321 413 -14 26 -28 47 -32 47 -5 0 -8 10 -8 23 0 13 -3 27 -7 31
-10 10 -31 75 -26 80 3 2 45 -36 94 -85 82 -83 109 -99 109 -65 0 7 -9 25 -20
39 -11 14 -20 32 -20 40 0 9 -3 17 -7 19 -12 5 -73 124 -73 141 0 9 -4 17 -8
19 -19 7 -112 271 -137 388 -8 36 -18 83 -24 105 -15 62 -41 339 -41 445 0
100 24 366 39 435 5 22 12 56 16 75 36 175 138 442 225 590 371 625 999 993
1830 1073 83 8 396 6 491 -3z"/>
<path d="M8791 7569 c-434 -33 -854 -191 -1186 -446 -157 -121 -300 -274 -409
-438 -37 -55 -70 -104 -74 -110 -7 -9 -103 -206 -123 -250 -23 -53 -80 -239
-94 -310 -34 -164 -47 -339 -40 -555 3 -113 10 -230 15 -260 16 -107 49 -246
75 -325 129 -383 325 -661 654 -928 140 -114 423 -263 621 -327 190 -62 294
-83 535 -111 441 -49 841 -1 1227 150 221 87 464 240 632 400 145 139 189 190
283 334 104 157 199 353 233 482 7 28 16 55 20 60 4 6 13 44 20 85 7 41 16 82
21 90 9 20 28 213 31 330 l3 95 -1092 3 -1093 2 0 1020 0 1020 -77 -1 c-43 -1
-125 -5 -182 -10z"/>
<path d="M7030 4330 c0 -5 5 -10 10 -10 6 0 10 5 10 10 0 6 -4 10 -10 10 -5 0
-10 -4 -10 -10z"/>
<path d="M7025 4300 c3 -5 11 -10 16 -10 6 0 7 5 4 10 -3 6 -11 10 -16 10 -6
0 -7 -4 -4 -10z"/>
<path d="M17515 4310 c-3 -5 -1 -10 4 -10 6 0 11 5 11 10 0 6 -2 10 -4 10 -3
0 -8 -4 -11 -10z"/>
<path d="M17536 4277 c3 -10 9 -15 12 -12 3 3 0 11 -7 18 -10 9 -11 8 -5 -6z"/>
<path d="M6356 7105 c-25 -33 -27 -55 -6 -55 5 0 23 20 40 45 17 25 26 45 20
45 -5 0 -10 -4 -10 -10 0 -5 -5 -10 -11 -10 -5 0 -7 5 -4 10 15 24 -5 7 -29
-25z"/>
<path d="M11710 7121 c0 -6 4 -13 10 -16 6 -3 7 1 4 9 -7 18 -14 21 -14 7z"/>
</g>
</svg>
